#!OML:ASF H:\Dans Jumps\Project 1\Capture day 1\Session 1\subject.ASF
:FULLY-SPECIFIED
:DEGREES
184
root 0.608508 13.724 -16.164 37.1933 -0.799468 -2.78434
lowerback 42.4324 1.93144 -0.790773
upperback 2.64792 2.56212 2.82283
thorax -17.7824 1.17871 2.3194
lowerneck -20.2515 -0.366522 -2.16403
upperneck -13.5773 -0.149767 -1.28128
head -1.06838 0.011155 -0.0563627
rclavicle 1.03368e-014 1.37161e-014
rhumerus -57.1745 -25.2555 -50.7028
rradius 15.8166
rwrist 52.0118
rhand -16.7816 -21.1073
rfingers 7.12502
rthumb 9.44611 -50.8756
lclavicle 1.03368e-014 1.37161e-014
lhumerus -52.0818 16.5682 64.3644
lradius 7.24975
lwrist -16.5624
lhand -24.3861 -6.97376
lfingers 7.12502
lthumb 2.10449 22.9956
rfemur -92.095 -1.1206 24.5223
rtibia 85.4783
rfoot -32.45 -15.5776
rtoes 1.49931
lfemur -92.6073 6.39576 -22.2942
ltibia 85.5506
lfoot -26.7463 20.8191
ltoes -9.50112
185
root 0.603427 13.7261 -16.0747 37.1879 -0.739048 -2.74492
lowerback 42.0068 1.89988 -0.766546
upperback 2.66417 2.53109 2.79897
thorax -17.6112 1.16625 2.29949
lowerneck -20.3102 -0.35472 -2.14839
upperneck -13.5146 -0.132104 -1.26569
head -1.03911 0.0189212 -0.0531236
rclavicle -1.19271e-015 -6.75868e-015
rhumerus -56.2923 -25.8795 -50.7344
rradius 15.6444
rwrist 52.8106
rhand -16.9887 -21.1258
rfingers 7.12502
rthumb 9.24629 -50.9031
lclavicle -1.19271e-015 -6.75868e-015
lhumerus -51.1377 17.0436 64.4243
lradius 7.35744
lwrist -16.5516
lhand -24.4011 -7.23466
lfingers 7.12502
lthumb 2.08996 22.7348
rfemur -91.7343 -1.18828 24.4996
rtibia 85.5801
rfoot -32.2837 -15.6692
rtoes 1.48582
lfemur -92.2234 6.34461 -22.2234
ltibia 85.6607
lfoot -26.8199 20.8937
ltoes -9.44336
186
root 0.598514 13.7341 -15.9789 37.1828 -0.670214 -2.7057
lowerback 41.4585 1.85872 -0.732389
upperback 2.67419 2.49309 2.77501
thorax -17.4025 1.15106 2.27894
lowerneck -20.398 -0.35029 -2.14078
upperneck -13.3931 -0.120007 -1.23252
head -0.986097 0.0234738 -0.0431974
rclavicle 2.78299e-015 3.97569e-016
rhumerus -55.1665 -26.3701 -51.0877
rradius 15.5624
rwrist 53.1146
rhand -17.1871 -21.1613
rfingers 7.12502
rthumb 9.0548 -50.9469
lclavicle 2.78299e-015 3.97569e-016
lhumerus -50.0141 17.5577 64.5685
lradius 7.46287
lwrist -16.4864
lhand -24.5316 -7.51437
lfingers 7.12502
lthumb 1.96395 22.4563
rfemur -91.3006 -1.24111 24.45
rtibia 85.6151
rfoot -32.0736 -15.7493
rtoes 1.48557
lfemur -91.7681 6.27135 -22.1259
ltibia 85.7022
lfoot -26.8718 20.9677
ltoes -9.37496
187
root 0.593346 13.7513 -15.8745 37.123 -0.608712 -2.67327
lowerback 40.8525 1.82201 -0.707226
upperback 2.68126 2.45691 2.75398
thorax -17.175 1.13763 2.26609
lowerneck -20.5039 -0.355273 -2.14588
upperneck -13.2177 -0.115425 -1.17437
head -0.912532 0.0242291 -0.0235644
rclavicle -6.75868e-015 -1.07344e-014
rhumerus -53.7873 -26.6892 -51.785
rradius 15.5906
rwrist 52.829
rhand -17.3578 -21.2102
rfingers 7.12502
rthumb 8.89007 -51.0029
lclavicle -6.75868e-015 -1.07344e-014
lhumerus -48.7198 18.121 64.7818
lradius 7.55743
lwrist -16.459
lhand -24.7112 -7.76189
lfingers 7.12502
lthumb 1.79046 22.2103
rfemur -90.7027 -1.26908 24.3723
rtibia 85.5691
rfoot -31.8712 -15.8283
rtoes 1.53307
lfemur -91.1513 6.20058 -21.9995
ltibia 85.6611
lfoot -26.925 21.0633
ltoes -9.30889
188
root 0.587789 13.7768 -15.7629 37.035 -0.553524 -2.64631
lowerback 40.1688 1.79129 -0.695726
upperback 2.67887 2.423 2.73698
thorax -16.9289 1.12667 2.26469
lowerneck -20.6258 -0.364949 -2.14744
upperneck -12.991 -0.116533 -1.10867
head -0.819552 0.0213543 -0.00233682
rclavicle -7.15625e-015 -3.77691e-015
rhumerus -52.167 -26.8103 -52.8145
rradius 15.7469
rwrist 52.0024
rhand -17.5409 -21.2549
rfingers 7.12502
rthumb 8.71343 -51.0551
lclavicle -7.15625e-015 -3.77691e-015
lhumerus -47.2627 18.717 65.0673
lradius 7.64488
lwrist -16.5101
lhand -25.005 -7.99276
lfingers 7.12502
lthumb 1.50674 21.9817
rfemur -89.9807 -1.27548 24.278
rtibia 85.4406
rfoot -31.7043 -15.9356
rtoes 1.545
lfemur -90.4121 6.13302 -21.8499
ltibia 85.5344
lfoot -26.9715 21.1911
ltoes -9.34329
189
root 0.58197 13.8112 -15.6449 36.9189 -0.513562 -2.62519
lowerback 39.4256 1.77112 -0.708937
upperback 2.65795 2.3931 2.72551
thorax -16.6809 1.11963 2.28135
lowerneck -20.7686 -0.373896 -2.14236
upperneck -12.7016 -0.116973 -1.04487
head -0.702513 0.0177916 0.0173104
rclavicle 7.95139e-015 7.7526e-015
rhumerus -50.3353 -26.6997 -54.141
rradius 16.0548
rwrist 50.7616
rhand -17.7372 -21.3281
rfingers 7.12502
rthumb 8.524 -51.136
lclavicle 7.95139e-015 7.7526e-015
lhumerus -45.6734 19.3329 65.4168
lradius 7.74849
lwrist -16.6172
lhand -25.3055 -8.19144
lfingers 7.12502
lthumb 1.21653 21.7848
rfemur -89.138 -1.26183 24.1731
rtibia 85.223
rfoot -31.5996 -16.0873
rtoes 1.42838
lfemur -89.5521 6.07744 -21.6863
ltibia 85.3152
lfoot -27.0111 21.3601
ltoes -9.56123
